# xmcd CD database file
#
# Track frame offsets:
#	150
#	23901
#	41310
#	66734
#	86289
#	113064
#	137589
#	162035
#	185967
#	203349
#	218346
#	240057
#
# Disc length: 3499 seconds
#
# Revision: 7
# Processed by: cddbd v1.5.2PL0 Copyright (c) Steve Scherf et al.
# Submitted via: CDex 1.51
#
DISCID=910da90c
DTITLE=Aurelio Drago - Goin' West
DYEAR=1999
DGENRE=Country
TTITLE0=I don't need to be a millionaire (Part one)
TTITLE1=I want to keep you as a friend
TTITLE2=Many miles away from you
TTITLE3=She's a beauty
TTITLE4=Blue mountains
TTITLE5=Colorado river
TTITLE6=Now I'm here to stay
TTITLE7=When the hills were green
TTITLE8=My heroes
TTITLE9=Bounty killer
TTITLE10=Memories in a quiet night
TTITLE11=I don't need to be a millionaire (Part two)
EXTD=YEAR: 1999
EXTT0=
EXTT1=
EXTT2=
EXTT3=
EXTT4=
EXTT5=
EXTT6=
EXTT7=
EXTT8=
EXTT9=
EXTT10=
EXTT11=
PLAYORDER=
